/* XPM */
static char *c4630754b0104412d32cb506059e604eokhY6jTwXsYQJwaH[] = {
/* columns rows colors chars-per-pixel */
"16 16 100 2 ",
"   c None",
".  c #D57914",
"X  c #DE7C11",
"o  c #D57E1F",
"O  c #D97E1A",
"+  c #D37F23",
"@  c #E78112",
"#  c #E98212",
"$  c #EA8212",
"%  c #EA8312",
"&  c #F68C17",
"*  c #FD8F18",
"=  c #FF9118",
"-  c #FB921E",
";  c #FE931E",
":  c #FF941F",
">  c #DB8220",
",  c #DD8625",
"<  c #D6862D",
"1  c #DB882A",
"2  c #DF8C2F",
"3  c #E78C27",
"4  c #EA8D27",
"5  c #F28F22",
"6  c #E7902E",
"7  c #E9902C",
"8  c #F39023",
"9  c #F49023",
"0  c #F69223",
"q  c #F99424",
"w  c #FD9625",
"e  c #FE9725",
"r  c #FF9725",
"t  c #FB982A",
"y  c #FE9A2B",
"u  c #FF9B2B",
"i  c #E59133",
"p  c #E79537",
"a  c #E89232",
"s  c #E49438",
"d  c #E6973D",
"f  c #E4963E",
"g  c #F59830",
"h  c #FD9C31",
"j  c #FE9D31",
"k  c #FE9E31",
"l  c #FF9E31",
"z  c #FDA037",
"x  c #FEA138",
"c  c #FFA138",
"v  c #FDA43E",
"b  c #FEA43E",
"n  c #FFA43E",
"m  c #FFA53E",
"M  c #DA9647",
"N  c #D4964E",
"B  c #DD9848",
"V  c #D59A53",
"C  c #DA9B51",
"Z  c #D29B58",
"A  c #E39843",
"S  c #E69942",
"D  c #E29B48",
"F  c #E59C48",
"G  c #E29D4C",
"H  c #E29D4E",
"J  c #E49F4E",
"K  c #DDA35D",
"L  c #FDA744",
"P  c #FFA844",
"I  c #FDAA4A",
"U  c #FFAB4A",
"Y  c #FFAB4B",
"T  c #E2A154",
"R  c #E8A555",
"E  c #EDA857",
"W  c #E9A85B",
"Q  c #FDAD50",
"!  c #FFAE51",
"~  c #FAAE55",
"^  c #F6AE5A",
"/  c #FCB056",
"(  c #FDB056",
")  c #FEB157",
"_  c #FFB257",
"`  c #FBB35C",
"'  c #FFB55D",
"]  c #FFB55E",
"[  c #E5A960",
"{  c #E6AA61",
"}  c #E7AA61",
"|  c #E8AA60",
" . c #E8AB61",
".. c #FDB763",
"X. c #FAB767",
"o. c #FFB863",
"O. c #FFB864",
"+. c #FFB964",
"@. c #FFBB69",
"#. c #FFBC6A",
/* pixels */
"  Z | } } } } } } } } } } W K   ",
"  | #.#.@.@.@.@.@.@.@.@.@.@.X.  ",
"  W +.+.+.O...+...+.O.O.O.O.O.V ",
"  R ' ' ' E T T C ^ ' ' ' ' ` N ",
"  J ( ) ~       J ( ) ( ) / H   ",
"      B M     F Q Y ( Q Q D     ",
"            S I Y Y I I A       ",
"          d L P P P L A         ",
"        p m m m m m s           ",
"      7 x c z z z i     < 2     ",
"    7 z z u z u 6       g h h 1 ",
"  4 u u u u u 3       > y y y , ",
"> w w r r r r 9 8 0 0 w r w r > ",
"  - ; ; w ; ; ; ; ; ; ; w ; ; O ",
"  & = = = = = = = = * * * * * . ",
"  X % % # # # # % % # % % # #   "
};
