/* XPM */
static char *be07130ac6ff4d96860b86f681cd18cfbW0UCYBhXENUupaK[] = {
/* columns rows colors chars-per-pixel */
"16 16 98 2 ",
"   c None",
".  c #D77C18",
"X  c #D47D1C",
"o  c #D27D20",
"O  c #DA801D",
"+  c #FA901C",
"@  c #FD921C",
"#  c #FF931C",
"$  c #DC8321",
"%  c #DD8726",
"&  c #DD892B",
"*  c #DE8B2F",
"=  c #D28732",
"-  c #DC8B30",
";  c #D48C3A",
":  c #E58822",
">  c #E48A27",
",  c #E98A22",
"<  c #E88A23",
"1  c #EB8C23",
"2  c #E18D2F",
"3  c #E58E2D",
"4  c #EA8F29",
"5  c #EA902D",
"6  c #F29024",
"7  c #FD9421",
"8  c #FE9521",
"9  c #FF9621",
"0  c #FF9622",
"q  c #FC9726",
"w  c #FE9827",
"e  c #FF9827",
"r  c #FB992B",
"t  c #FE9B2C",
"y  c #FF9B2C",
"u  c #E69130",
"i  c #EF9633",
"p  c #F79930",
"a  c #FE9E31",
"s  c #FF9E31",
"d  c #FF9E32",
"f  c #FC9F36",
"g  c #F39C39",
"h  c #FFA137",
"j  c #F5A03F",
"k  c #F7A13F",
"l  c #FAA03B",
"z  c #FFA33C",
"x  c #FFA43C",
"c  c #C38A47",
"v  c #D79446",
"b  c #DC9441",
"n  c #D99647",
"m  c #DA984A",
"M  c #D19854",
"N  c #DA9C52",
"B  c #E39B47",
"V  c #E99D46",
"C  c #E29B48",
"Z  c #E39E4D",
"A  c #F09F43",
"S  c #E09E51",
"D  c #E9A24E",
"F  c #FFA641",
"G  c #FFA741",
"H  c #FAA645",
"J  c #FFA946",
"K  c #FFA947",
"L  c #FCAA4B",
"P  c #FFAC4C",
"I  c #E8A453",
"U  c #E9A758",
"Y  c #E8A95D",
"T  c #FEAE51",
"R  c #FFAE51",
"E  c #FAAD54",
"W  c #FCAF55",
"Q  c #F4AC58",
"!  c #F9AF59",
"~  c #FCB056",
"^  c #FEB056",
"/  c #FEB156",
"(  c #FFB156",
")  c #FEB45B",
"_  c #F8B25F",
"`  c #F9B25F",
"'  c #FAB35F",
"]  c #FFB45C",
"[  c #E7AA60",
"{  c #FDB560",
"}  c #FEB660",
"|  c #FFB761",
" . c #FCB765",
".. c #FFB966",
"X. c #FFBA66",
"o. c #F8B768",
"O. c #FEBB6A",
"+. c #FEBC6A",
/* pixels */
"  [ +.O.+.+.O.+.+.O.+.+.O.+.o.  ",
"  Y ........................ .M ",
"  U | | | { ` ` ` { | | | { { N ",
"  I ] ] ) S     c Q ] ] ] ] ~   ",
"  Z ~ ~ E       I ( ( ( ( ~ m   ",
"      n n     B T R R R T C     ",
"            b L L P L L V       ",
"          ; H K K K H H         ",
"          j G x G G j           ",
"        g x x x x l =           ",
"      i h h h h f -     - u 2   ",
"    5 h t h h t 3       p a a & ",
"  > y y y y y 5         r y y % ",
"o q e e e e e < : 1 1 6 e e e $ ",
"X 8 8 8 0 0 0 0 8 8 0 0 8 8 8 O ",
"  + # # # # # # # # # # # @ @ . "
};
