/* XPM */
static char *a0e409fe83384e36bbfc482313e87d3dPUHxLJOUifOURCX4[] = {
/* columns rows colors chars-per-pixel */
"64 64 197 2 ",
"   c None",
".  c #5D3C13",
"X  c #633D15",
"o  c #654016",
"O  c #6A4214",
"+  c #714719",
"@  c #7B4C18",
"#  c #7D501C",
"$  c #6F4B26",
"%  c #644625",
"&  c #7B4E20",
"*  c #775022",
"=  c #7C5222",
"-  c #7C562A",
";  c #804F19",
":  c #844E15",
">  c #8A551C",
",  c #8F5A1F",
"<  c #83521A",
"1  c #9B5B16",
"2  c #9A5E1B",
"3  c #945917",
"4  c #A05F18",
"5  c #9E611A",
"6  c #AD6313",
"7  c #A4631B",
"8  c #AD681B",
"9  c #A8641A",
"0  c #BB6C15",
"q  c #B46C1C",
"w  c #BA6F1B",
"e  c #B56814",
"r  c #845623",
"t  c #865926",
"y  c #885923",
"u  c #84592A",
"i  c #8B5F2C",
"p  c #965E21",
"a  c #9C6425",
"s  c #9A662A",
"d  c #97672E",
"f  c #8B6231",
"g  c #8C663A",
"h  c #956631",
"j  c #9C6C34",
"k  c #966C39",
"l  c #9F703A",
"z  c #A76920",
"x  c #AC6D26",
"c  c #A86C29",
"v  c #B16E22",
"b  c #AE732E",
"n  c #BB7526",
"m  c #B3742B",
"M  c #BB7528",
"N  c #BC782D",
"B  c #A26E34",
"V  c #A67335",
"C  c #AC7535",
"Z  c #A7753A",
"A  c #AC793D",
"S  c #BE7F33",
"D  c #B57C3B",
"F  c #BA7F39",
"G  c #B17633",
"H  c #C67116",
"J  c #C5751B",
"K  c #CC7A1E",
"L  c #D37F1F",
"P  c #D37A17",
"I  c #C47821",
"U  c #C37C2B",
"Y  c #C87E29",
"T  c #CA7B25",
"R  c #D37E20",
"E  c #A07440",
"W  c #AC7D44",
"Q  c #B37F40",
"!  c #BF8137",
"~  c #B7803F",
"^  c #BD823D",
"/  c #DE821B",
"(  c #EA8A1D",
")  c #FA8F19",
"_  c #F48D1B",
"`  c #FF931C",
"'  c #CF832C",
"]  c #D48123",
"[  c #DA8423",
"{  c #D4852C",
"}  c #DB8628",
"|  c #D4882F",
" . c #DB892B",
".. c #C58131",
"X. c #CA8737",
"o. c #C4863E",
"O. c #CC8839",
"+. c #D58A36",
"@. c #D88F3C",
"#. c #D58D3B",
"$. c #E48A25",
"%. c #EA8D25",
"&. c #E48D2B",
"*. c #EB8F29",
"=. c #E28723",
"-. c #ED9026",
";. c #EC932E",
":. c #F39125",
">. c #FF9622",
",. c #FF9826",
"<. c #F5952A",
"1. c #FA9728",
"2. c #FF9B2B",
"3. c #E18F31",
"4. c #E39235",
"5. c #EB9533",
"6. c #E2953C",
"7. c #EC9B3C",
"8. c #F59A33",
"9. c #FF9E32",
"0. c #F29D3B",
"q. c #FFA036",
"w. c #FFA33B",
"e. c #B78547",
"r. c #BD8542",
"t. c #C38B47",
"y. c #CB8C43",
"u. c #C38946",
"i. c #D28F40",
"p. c #CE9046",
"a. c #CC924B",
"s. c #D49244",
"d. c #DB9542",
"f. c #DC9847",
"g. c #D3954C",
"h. c #D99748",
"j. c #D7994F",
"k. c #DB9A4D",
"l. c #CE9856",
"z. c #D79C56",
"x. c #DA9B51",
"c. c #D49C58",
"v. c #D89F5B",
"b. c #E89D45",
"n. c #E39E4B",
"m. c #E19F52",
"M. c #E6A14F",
"N. c #EBA24C",
"B. c #F4A344",
"V. c #FFA742",
"C. c #FFA846",
"Z. c #F3A64C",
"A. c #F9A748",
"S. c #F5A94E",
"D. c #FFAB4C",
"F. c #E4A152",
"G. c #EBA755",
"H. c #E7AA5E",
"J. c #F5AB53",
"K. c #FEAF52",
"L. c #F6AF59",
"P. c #FFB155",
"I. c #F7B05B",
"U. c #FFB258",
"Y. c #FFB359",
"T. c #FEB259",
"R. c #FFB35B",
"E. c #FEB35B",
"W. c #FCB259",
"Q. c #FAB35D",
"!. c #FCB35D",
"~. c #FFB45C",
"^. c #FFB55D",
"/. c #FFB55C",
"(. c #FDB45E",
"). c #FFB55E",
"_. c #FEB55E",
"`. c #FFB65F",
"'. c #FFB65E",
"]. c #FCB45D",
"[. c #FCB35B",
"{. c #FFB761",
"}. c #FFB660",
"|. c #FDB662",
" X c #FBB663",
".X c #FFB863",
"XX c #FFB864",
"oX c #FFB965",
"OX c #FFB966",
"+X c #FFBA67",
"@X c #FCB866",
"#X c #FFBB69",
"$X c #FFBB68",
"%X c #FFBB6A",
"&X c #FCBA69",
"*X c #FFBC6A",
"=X c #F4B261",
/* pixels */
"          c.&X*X*X&X&X*X&X&X*X&X&X*X*X&X*X*X*X&X*X*X&X*X*X&X*X*X&X*X*X&X*X*X&X*X&X*X*X&X*X*X*X&X*X*X&X*X*X&X*X*X&X*X&X*Xl.      ",
"          c.&X&X*X*X*X*X*X*X*X*X*X*X&X*X*X&X*X*X&X*X*X&X*X*X&X*X*X&X&X*X*X&X&X*X*X*X&X*X*X&X*X*X&X*X*X&X*X*X&X*X*X&X*X&Xv.      ",
"          z.&XoX&X&XoX&X&X&XoX&X&X&X&XoXoXoX&X&XoX&X&XoX&X&X&XoXoX&X&X*X$X&X&XoX&X&X&XoXoX&XoX&XoX&X&XoX&X&X&XoXoXoX&X*XH.g     ",
"          z.@XoXoXoXoX&XoXoXoXoXoXoXoXoXoX&XoXoXoXoX&XoXoXoXoXoXoXoXoXoXoX&XoXoXoXoXoXoXoX&XoXoXoXoX&XoXoXoXoXoXoX&XoX*XH.k     ",
"          z.@XoXoXoXoXoXoXoXoXoXoXoXoXoXoXoXoXoXoXoXoXoXoXoXoXoXoXoXoXoXoXoXoXoXoXoXoXoXoXoXoXoXoXoXoXoXoXoXoXoXoXoXoXoX=XE     ",
"          z.|..XoX.X.X.XoXoXoX.XoX.X.XoXoX.X.X.XoXoX.X.X.XoXoX.XoX.XoX.XoX.X.XoX.X.XoX.XoX|.oXoXoXoX.X.X.XoXoX.X.XoX.X.X XW     ",
"          z.|.|..X.X.X.X.X.X.X.X.X.X.X.X|..X.X.XoX.X.X.X.X.X.X.X.X.X.X.X.X.X.X.X.X.X.X.X.X.X|..XoX.X.X.X.X.X.X.X.X.X.X.XoXe.    ",
"          x.|.|..X|..X`..X`.|.|.`.|..X'..X|.|.|.|..X'..X|.|..X'..X|.`.|..X'..X|..X`..X`.|.|.|.|.|..X'..X|.|..X'.|.|..X|..Xt.    ",
"          x.(.'.'.'.'.'.'.|.'.'.'.'.'.'.'.|.'.|.|.'.'.|.'.|.'.'.'.'.|.'.|.'.'.'.|.'.'.'.'.'.'.'.|.'.'.'.'.'.'.'.'.'.'.'.'.a.    ",
"          x.].'.'.'.'.'.).).).).).).).).).).'.'.).'.'.'.).].].].].].].].].'.'.).).).).).'.'.).).).).'.'.).).'.'.'.'.).).'.x.    ",
"          j.[.'.'.'.'.'.R.'.).).'.'.R.'.).].G.F.m.x.x.k.j.j.j.g.g.a.a.u.j.L.Y.'.).'.).).'.'.'.Y.).).).R.).).'.'.'.'.R.'.'.x.    ",
"          j.[.Y.R.R.R.R.R.).R.R.R.'.R.).R.G.l                         % r.L.'.Y.R.R.R.).'.Y.'.'.R.R.).R.R.).'.Y.R.'.R.'.[.t.    ",
"          g.R.R.'.Y.Y.Y.R.R.R.R.Y.Y.Y.'.R.a.                          A G.'.R.R.R.R.R.R.R.R.Y.Y.R.R.R.R.Y.Y.Y.'.R.R.R.R.j.f     ",
"          g.R.U.R.Y.Y.U.R.R.U.U.U.U.Y.Y.U.Q                         j F.R.R.U.U.U.R.U.U.U.U.U.U.R.U.U.R.U.U.Y.Y.U.R.R.n.j       ",
"          g.P.U.U.U.U.U.U.U.U.U.U.U.U.U.J.j                       - f.J.U.U.U.U.U.U.U.U.U.U.U.U.U.U.U.U.U.U.U.U.U.U.G.Z         ",
"          p.J.U.U.U.P.U.U.U.U.U.U.U.U.U.F.f                       g.[.U.U.U.U.U.U.U.U.U.U.U.U.U.U.U.U.U.U.U.U.U.U.J.~           ",
"          y.L.U.U.K.U.K.U.K.K.U.K.K.P.P.s.                      ^ P.P.P.P.P.P.P.P.P.P.P.P.P.P.P.P.P.P.P.K.U.K.U.P.y.            ",
"          o.J.K.K.P.K.P.K.U.U.K.K.U.P.U.u.                    j P.P.K.P.P.P.K.P.P.K.P.P.P.K.P.P.P.K.P.K.P.U.P.K.s.$             ",
"          V n.S.J.K.K.K.K.U.K.K.P.P.P.S.D                   h N.K.P.P.K.K.K.P.K.K.K.P.K.K.K.K.K.P.P.K.K.K.K.K.n.u               ",
"            B D ^ o.y.s.d.f.n.n.N.N.Z.n.B                 i f.P.K.K.K.K.K.K.K.K.K.K.K.K.K.K.K.K.D.D.P.K.K.P.n.h                 ",
"                            d j B V V V                   s.S.K.K.D.K.K.K.K.D.K.K.K.D.K.K.D.K.K.P.D.D.P.D.Z.V                   ",
"                                                        o.S.D.K.D.K.K.D.D.K.K.D.D.K.K.D.K.D.D.K.K.D.K.D.S.^                     ",
"                                                      ! Z.D.D.D.K.D.D.D.D.K.D.K.D.K.D.K.D.K.D.K.D.D.K.S.s.                      ",
"                                                    C S.D.D.D.D.D.D.K.D.D.K.D.D.D.D.D.D.K.D.D.D.D.K.D.d.t                       ",
"                                                  d B.D.D.C.D.D.C.D.D.D.D.D.D.D.D.D.D.C.D.D.D.D.D.D.N.s                         ",
"                                                t b.D.D.D.D.C.D.C.D.D.C.C.C.C.D.C.D.C.D.D.C.C.D.C.B.G                           ",
"                                              = 6.D.C.C.C.C.C.D.C.C.D.D.C.D.D.C.D.C.D.C.C.D.C.D.S.!                             ",
"                                            = #.C.C.D.C.D.C.C.D.C.D.C.C.C.C.C.C.C.C.C.C.C.C.C.C.O.                              ",
"                                            X.C.C.C.C.V.C.C.C.V.C.C.C.C.C.C.C.C.C.C.C.C.C.C.C.@.*                               ",
"                                          ..B.C.C.C.C.C.C.C.C.C.C.C.C.D.C.C.C.C.C.C.C.C.C.C.6.t                                 ",
"                                        b b.V.V.V.V.V.C.V.V.V.C.w.C.C.w.C.w.w.C.C.V.V.V.V.7.s                                   ",
"                                      s 7.V.V.V.V.V.V.V.V.V.V.V.C.w.C.w.C.C.C.w.V.V.V.V.B.b                                     ",
"                                    > 6.C.C.C.w.w.C.w.V.w.C.w.V.w.C.w.C.w.w.C.w.V.V.w.w...                                      ",
"                                  # +.C.w.w.w.C.V.w.V.V.V.w.V.V.w.w.C.w.w.C.C.w.w.V.B.+.r                                       ",
"                                  ..w.w.w.w.w.w.w.w.V.w.w.w.w.w.C.w.w.w.w.C.w.w.w.w.6.a                                         ",
"                                N w.C.w.w.w.w.w.w.V.w.w.V.w.w.w.w.w.w.C.w.w.w.w.w.7.c                                           ",
"                              m w.w.w.w.w.w.w.w.w.w.w.w.w.w.w.w.w.w.w.w.w.w.w.w.w.m                                             ",
"                            c 0.w.w.q.w.w.w.q.w.w.w.w.w.q.w.w.w.w.w.q.w.w.w.w.w.U                                               ",
"                          z 5.w.w.w.w.q.w.q.w.q.w.q.q.w.q.w.q.q.q.w.w.w.q.w.w.| o                                               ",
"                        y  .q.w.q.q.q.w.w.q.q.w.q.w.q.q.w.q.w.q.q.q.q.q.w.q.4.@                 . < = @ + X                     ",
"                      @ { 9.q.q.q.q.q.q.q.q.q.q.q.q.q.q.q.q.q.q.q.q.q.q.q.5.,                   M q.8.8.8.5.5.&. .' U x 2 o     ",
"                      Y 8.w.q.9.q.q.9.q.9.q.9.9.q.q.q.q.9.q.q.q.q.q.q.q.8.x                      .q.q.q.q.q.q.q.q.q.q.q.q.Y     ",
"                    n 8.q.9.q.9.9.9.q.9.q.9.q.9.9.q.9.9.9.9.q.9.9.9.9.8.M                     X ;.q.9.9.q.9.q.9.q.9.q.q.q. .    ",
"                  z ;.9.9.9.9.9.9.9.9.9.9.9.9.9.9.9.9.9.9.9.9.9.9.9.1...                      # 8.9.9.9.9.9.9.9.q.9.2.q.q. .    ",
"                2 ;.9.9.2.9.9.9.9.9.9.9.9.9.9.9.9.9.9.9.9.9.9.9.9.9.| <                       5 9.9.9.9.9.9.9.9.9.9.9.9.2. .    ",
"              > &.9.9.2.9.9.9.2.2.9.2.9.9.9.9.2.9.9.2.9.2.9.2.9.9.&.5                         x 9.2.2.9.2.9.9.2.9.2.9.9.q. .    ",
"            @ $.2.9.9.2.2.9.9.9.9.2.2.9.9.2.2.9.9.2.2.9.9.2.2.9.<.5                           ] 9.2.2.9.9.9.9.9.2.9.9.2.9.}     ",
"          X { 2.9.2.2.9.2.2.2.2.9.2.9.2.2.9.2.2.2.9.2.2.9.2.9.2.v                              .2.2.9.2.2.2.2.2.2.2.2.9.2.}     ",
"          I 2.2.2.2.2.2.2.2.2.2.2.2.2.2.2.2.2.2.2.2.2.2.2.2.2.[                               -.2.2.2.2.2.2.2.2.2.2.2.2.2.}     ",
"        v <.,.2.2.2.2.2.,.2.2.2.2.,.2.2.,.2.2.2.2.2.,.2.2.1.$.<                             < <.2.2.2.2.2.2.2.2.2.2.2.2.2./     ",
"      9 *.,.2.,.,.2.,.2.,.2.,.2.2.2.2.,.2.,.2.,.2.2.2.,.,.-.5                               5 ,.,.2.2.2.2.,.,.2.>.>.2.2.2.]     ",
"    2 $.,.2.,.,.,.2.2.,.,.2.,.,.,.2.,.2.,.2.,.2.,.,.,.2.1.w O               3 5 5 9 9 8 q w ] ,.2.,.2.,.2.>.2.2.2.2.2.,.2.]     ",
"    K ,.,.,.,.,.,.,.,.,.,.,.2.1.,.,.,.,.,.,.,.,.,.,.,.,.,./ ] ] ] / ] ] / [ $.( %.-.-.:.,.,.,.,.>.,.,.2.>.2.2.>.,.,.,.>.,.K     ",
"    L ,.,.,.,.,.,.,.,.,.,.,.,.,.,.,.,.,.,.,.,.,.,.,.,.,.,.1.1.>.>.,.>.1.,.,.,.,.,.,.,.,.,.,.,.,.2.>.,.2.>.>.,.,.,.,.,.2.>.]     ",
"    J ,.,.,.,.>.,.,.,.>.,.,.,.,.,.>.,.>.>.,.,.,.,.,.>.,.,.,.,.,.,.,.>.,.,.,.,.,.,.,.` ,.,.>.,.,.>.>.,.>.,.>.,.,.>.,.>.,.>.K     ",
"    w >.>.>.>.>.>.>.>.>.>.>.>.>.>.>.>.>.>.>.>.>.>.>.>.>.>.>.>.>.>.>.>.>.>.>.>.,.` ,.` ,.>.>.>.>.>.>.>.>.>.>.>.>.>.>.>.,.>.J     ",
"    9 ` ` ,.` ,.>.>.>.>.>.>.>.` >.>.>.>.>.>.>.` >.>.>.>.>.>.>.>.>.>.>.>.>.>.>.>.>.>.>.>.>.>.>.>.` ,.,.,.,.` ,.` >.>.>.` >.J     ",
"    5 _ ` ` ,.` >.` >.` ` >.>.>.` >.>.` >.` >.>.` >.` >.` ` >.` >.` ` >.` >.>.` ` >.` >.>.` ` >.,.` ` ` ` ,.` ` >.` >.>.>.J     ",
"    5 ( ,.` ` ` ` ` >.>.` >.` ` ` ` ` ` ` >.` ` >.` >.` >.` ` ` ` ` >.>.>.` ` >.` ` ` ` ` ` >.>.` ` ,.` ` ,.` ` ` >.` ` >.0     ",
"      / ` ` ` ` ` >.) >.>.` ` >.` ` ` ` >.` ` >.` ` ` >.` ` ` ` ` >.` ` ` >.` ` ` ` ` ` ` >.` ` ,.` ` ` ` ` ` ` >.` ` >.` 0     ",
"      P ` ` ` ` ` ` ` ` ) ` ` ` ` ` ` ` ` ` ` ` ` ` ` ` ` ` ` ` ` ` ` ` ` ` ` ` ` ` ` ` ` ` ` ` ` ` ` ` ` ` ` ` ` ` ` ` ` e     ",
"      H ) ` ` ` ` ` ` ) ` ` ` ` ` ` ` ) ` ` ` ` ` ` ` ` ` ` ) ` ` ` ` ` ` ` ` ` ` ` ` ` ` ` ` ` ` ` ` ` ` ` ` ) ` ) ` ` ` e     ",
"      0 ) ) ) ` ` ` ` ` ) ` ` ) ` ) ` ` ` ) ` ` ` ` ` ` ` ` ` ` ` ` ` ` ` ` ` ` ` ) ` ` ) ` ` ` ) ` ` ` ` ) ` ` ` ` ` ) ) 6     ",
"      6 ) ` ) ) ) ` ` ` ) ) ) ` ` ` ) ) ) ) ) ) ` ` ` ` ` ) ) ) ) ) ) ` ) ) ) ) ) ) ) ` ) ) ) ` ) ` ` ` ) ` ) ` ) ` ) ` ) 6     "
};
