/* XPM */
static char *a566aa9838a54c53c1851d82d6bc2a83lOYEQHYX8eqxL3kI[] = {
/* columns rows colors chars-per-pixel */
"32 32 198 2 ",
"   c None",
".  c #9A5D19",
"X  c #A4651F",
"o  c #AA671D",
"O  c #AE681C",
"+  c #B16612",
"@  c #8F6533",
"#  c #BC7321",
"$  c #AB7639",
"%  c #A8773D",
"&  c #B27D3E",
"*  c #C76F0F",
"=  c #CE791A",
"-  c #DA7A11",
";  c #D87A13",
":  c #DA7C16",
">  c #D27918",
",  c #DB7F19",
"<  c #C37A29",
"1  c #B47F41",
"2  c #BB823F",
"3  c #DF841F",
"4  c #E2841C",
"5  c #F58913",
"6  c #F68913",
"7  c #F18815",
"8  c #FA8F19",
"9  c #FF9017",
"0  c #FF9117",
"q  c #FF911A",
"w  c #FF921A",
"e  c #FF931A",
"r  c #FF931D",
"t  c #FF941D",
"y  c #DA8220",
"u  c #D98323",
"i  c #D5862D",
"p  c #DA892E",
"a  c #DF8C2F",
"s  c #DE913A",
"d  c #DA903C",
"f  c #DA923F",
"g  c #E38722",
"h  c #E48822",
"j  c #E78A22",
"k  c #E88920",
"l  c #E98B23",
"z  c #EA8B23",
"x  c #EB8C23",
"c  c #E98C26",
"v  c #EE8E24",
"b  c #EF8E24",
"n  c #EC8E26",
"m  c #E68E2B",
"M  c #E28D2D",
"N  c #EB8F29",
"B  c #EE9027",
"V  c #ED9129",
"C  c #EC902A",
"Z  c #ED922C",
"A  c #EE922D",
"S  c #EC932F",
"D  c #FF9520",
"F  c #FF9620",
"G  c #FF9623",
"H  c #FF9723",
"J  c #F99425",
"K  c #FB9626",
"L  c #FF9724",
"P  c #FD9726",
"I  c #FF9826",
"U  c #FF9827",
"Y  c #FF9927",
"T  c #FF9A2A",
"R  c #FF9B2A",
"E  c #F8992F",
"W  c #FE9B2D",
"Q  c #FF9B2D",
"!  c #FF9C2D",
"~  c #E28E30",
"^  c #E29033",
"/  c #E69030",
"(  c #E29136",
")  c #E79437",
"_  c #EA9331",
"`  c #EB9432",
"'  c #EC9532",
"]  c #EB9534",
"[  c #E29238",
"{  c #E3953B",
"}  c #E59439",
"|  c #E1953D",
" . c #F59A31",
".. c #FF9D30",
"X. c #FF9E30",
"o. c #FF9F33",
"O. c #FFA033",
"+. c #FFA036",
"@. c #FFA136",
"#. c #FFA239",
"$. c #FFA339",
"%. c #FFA43C",
"&. c #FFA43D",
"*. c #FFA53F",
"=. c #AF8149",
"-. c #B88344",
";. c #B88447",
":. c #B38349",
">. c #B2834B",
",. c #B68448",
"<. c #C78941",
"1. c #D69346",
"2. c #D89241",
"3. c #D99444",
"4. c #D99546",
"5. c #DA9647",
"6. c #D39349",
"7. c #D7974B",
"8. c #D6974D",
"9. c #D89649",
"0. c #DF9948",
"q. c #CC9756",
"w. c #CF9855",
"e. c #D29953",
"r. c #E29741",
"t. c #E39943",
"y. c #E29A46",
"u. c #E39C49",
"i. c #E79F4B",
"p. c #E29C4C",
"a. c #E29E4E",
"s. c #E89F4B",
"d. c #EBA24C",
"f. c #FFA640",
"g. c #FFA743",
"h. c #FFA843",
"j. c #FEA846",
"k. c #FFA846",
"l. c #FFA946",
"z. c #FEAA49",
"x. c #FFAA49",
"c. c #FFAB49",
"v. c #FEAC4C",
"b. c #FFAC4C",
"n. c #FEAD4F",
"m. c #FFAD4F",
"M. c #FFAE4F",
"N. c #E5A252",
"B. c #E0A256",
"V. c #E9A657",
"C. c #EEA956",
"Z. c #EBA858",
"A. c #ECA858",
"S. c #EEAA59",
"D. c #FEAF52",
"F. c #FFAF52",
"G. c #FFAF53",
"H. c #FAAE54",
"J. c #F2AD5A",
"K. c #F4AE5B",
"L. c #F6AF5C",
"P. c #FDB055",
"I. c #FEB156",
"U. c #FFB156",
"Y. c #FFB256",
"T. c #FCB058",
"R. c #FDB258",
"E. c #FFB259",
"W. c #FFB359",
"Q. c #FDB25B",
"!. c #F8B15D",
"~. c #FDB45C",
"^. c #FFB45C",
"/. c #FFB55C",
"(. c #FDB45E",
"). c #FFB65F",
"_. c #FFB75F",
"`. c #F5B467",
"'. c #F6B667",
"]. c #FDB661",
"[. c #FFB762",
"{. c #FDB764",
"}. c #FFB862",
"|. c #FFB863",
" X c #FFB963",
".X c #FFB965",
"XX c #FCB967",
"oX c #FFBA66",
"OX c #F9B768",
"+X c #F9B868",
"@X c #F9B869",
"#X c #FAB869",
"$X c #FAB969",
"%X c #FBB969",
"&X c #FFBB68",
"*X c #FCBA6A",
"=X c #FDBB6A",
"-X c #FFBC6B",
/* pixels */
"                                                                ",
"    >.'.+X+XOXOX+X+XOXOXOX+X+X+X+X+X+X+X+X+X+X*X*X*X+X-X-X'.    ",
"    >.*X-X-X-X-X-X-X-X-X-X-X-X-X-X-X-X-X-X-X-X-X-X-X-X-X-X-Xq.  ",
"    >.XX&X&X&X*X&X&X&XXX*X&X&X&X&X&X*X-X&X&XXX-X&X&X&X&XXX*Xw.  ",
"    :.{.XX}.XX}.XX}.XXXXXXXX}.XXXX}.}.XXXX}.XX}.}.XXXX}.XXXXe.  ",
"    -.{.}.[.}.}.[.[.}.}.}.}.}.[.}.}.}.[.}.}.[.[.}.[.}.[.}.}.B.  ",
"    -.^.).).).).).).).!.L.J.S.S.Z.V.L.).).).).).).).).).).).S.  ",
"    1 W.^.^.W.).W.).C.%           @ N.).^.^.^.^.^.^.^.^.^.).8.  ",
"    1 T.W.W.W.W.E.W.6.            a.W.W.E.W.W.W.W.W.W.W.T.7.    ",
"    $ H.Y.Y.Y.Y.G.W.2           p.G.E.G.G.E.G.G.G.Y.Y.G.7.      ",
"      <.1.5.0.s.d.i.          u.G.G.G.G.G.G.G.G.G.G.G.5.        ",
"                            y.m.b.G.b.D.b.D.D.b.m.m.3.          ",
"                          t.b.b.b.b.b.b.b.b.b.b.c.3.            ",
"                        r.c.c.c.c.c.x.c.c.l.c.c.f               ",
"                      | l.l.l.k.k.k.k.k.k.l.k.f                 ",
"                    { h.g.g.g.g.g.g.g.k.g.g.s                   ",
"                  } *.g.*.g.*.*.&.f.f.&.g.(                     ",
"                } &.#.&.#.#.&.&.&.#.&.&.[                       ",
"              ] #.#.&.#.#.#.#.#.#.#.#.~                         ",
"            ] O.#.O.o.o.#.O.#.O.o.#.~           i ` _ / a p <   ",
"          A o.o...o.o.o.o.o.o.O.o.M              .O.O...O.O._   ",
"        A ......................m             X  ...........A   ",
"    o C Q Q Q Q Q Q Q Q Q Q ! N               # Q Q Q Q Q ! C   ",
"  O C R T T R R R R R Q R R c .               u R R R R R R c   ",
"  j I I I I I I I I I I I I v 3 h j c k v K K P P P P I I I x   ",
"  3 G G G G G G G G G G G P G G I H H P G G G G G G G G G P k   ",
"  = G G G t t G G t t G t G t G t G G t G t G t G t G t t G 4   ",
"  > q t r r r t r r r r r r r r r r r r r r r t r r r r t t ,   ",
"  + 9 q q q q q q q q q q q q q q q q q q q q q q q q q q e :   ",
"    7 9 9 9 9 9 9 9 9 9 9 9 9 9 9 9 9 9 9 9 9 9 9 9 9 9 9 9 ;   ",
"    ; 6 6 6 6 6 6 6 6 6 6 5 6 6 6 6 6 6 6 6 6 6 6 5 6 6 6 6 *   ",
"                                                                "
};
