/* XPM */
static char *a7faa35e7a504d5bedb2d63e5527e5b4YfLHTPkj7Z3WQQQ2[] = {
/* columns rows colors chars-per-pixel */
"64 64 185 2 ",
"   c None",
".  c #7D4B15",
"X  c #644423",
"o  c #7F5627",
"O  c #7B582D",
"+  c #814709",
"@  c #814A0E",
"#  c #8F500D",
"$  c #9D590F",
"%  c #835119",
"&  c #915617",
"*  c #945918",
"=  c #995D1F",
"-  c #AC5F0C",
";  c #B0610D",
":  c #BD690E",
">  c #AE6413",
",  c #AE671A",
"<  c #AF6B1B",
"1  c #B26614",
"2  c #B66812",
"3  c #BC6B15",
"4  c #BB6E19",
"5  c #B16B1D",
"6  c #BC711C",
"7  c #895C2B",
"8  c #8E612E",
"9  c #9A6528",
"0  c #96632A",
"q  c #8E6130",
"w  c #876539",
"e  c #8B663A",
"r  c #8E693C",
"t  c #936633",
"y  c #966A37",
"u  c #9C6B33",
"i  c #936C3D",
"p  c #9C6E39",
"a  c #A26827",
"s  c #A86821",
"d  c #A16C2D",
"f  c #B06F25",
"g  c #AD712C",
"h  c #B47025",
"j  c #BC7324",
"k  c #B3742C",
"l  c #BD7A2D",
"z  c #A16D31",
"x  c #A67234",
"c  c #A97232",
"v  c #A3733A",
"b  c #AB793D",
"n  c #B47731",
"m  c #B57A37",
"M  c #B27B3A",
"N  c #BA7C35",
"B  c #C16B0F",
"V  c #C57113",
"C  c #C87110",
"Z  c #C4751D",
"A  c #C8771E",
"S  c #CA791E",
"D  c #D27711",
"F  c #D57B18",
"G  c #C67720",
"H  c #C47924",
"J  c #CC7C23",
"K  c #C37B2A",
"L  c #C87F2B",
"P  c #D17E21",
"I  c #9E7542",
"U  c #AC7C43",
"Y  c #BC823E",
"T  c #E7861B",
"R  c #E38113",
"E  c #F48914",
"W  c #FE8D14",
"Q  c #FA8E18",
"!  c #F48E1D",
"~  c #FF9017",
"^  c #FF921C",
"/  c #CD812C",
"(  c #D58123",
")  c #DB8423",
"_  c #D4852C",
"`  c #DA872A",
"'  c #DC8A2D",
"]  c #C4883F",
"[  c #DE943E",
"{  c #E08622",
"}  c #E68B25",
"|  c #EC8E24",
" . c #ED942E",
".. c #F69426",
"X. c #FF9623",
"o. c #FF9827",
"O. c #F6962A",
"+. c #FB9728",
"@. c #F7992F",
"#. c #FF9A2B",
"$. c #EB9533",
"%. c #EE9837",
"&. c #E7993F",
"*. c #EF9C3D",
"=. c #F59A33",
"-. c #FF9E32",
";. c #F29D3B",
":. c #FFA035",
">. c #F5A13E",
",. c #FFA33B",
"<. c #BD8746",
"1. c #BC8A4C",
"2. c #B38145",
"3. c #C28742",
"4. c #CB8D44",
"5. c #C28B49",
"6. c #CD924B",
"7. c #D3954C",
"8. c #DF9D4F",
"9. c #D69446",
"0. c #CB9553",
"q. c #C69352",
"w. c #D09550",
"e. c #D79A50",
"r. c #E49A44",
"t. c #E49D4A",
"y. c #E99B42",
"u. c #F19F40",
"i. c #DBA25C",
"p. c #E5A04F",
"a. c #ECA24B",
"s. c #F1A042",
"d. c #FFA642",
"f. c #FFA946",
"g. c #F3A64E",
"h. c #F7A94F",
"j. c #FFAC4C",
"k. c #E5A354",
"l. c #EBA654",
"z. c #E5A85F",
"x. c #EDA958",
"c. c #F0A650",
"v. c #F4AB55",
"b. c #FEAF53",
"n. c #F2AD5A",
"m. c #FFB155",
"M. c #FAB15A",
"N. c #FFB359",
"B. c #FFB35B",
"V. c #FEB35A",
"C. c #FDB259",
"Z. c #FFB45A",
"A. c #FFB45C",
"S. c #FFB55D",
"D. c #FEB45D",
"F. c #FEB55F",
"G. c #FFB55F",
"H. c #FFB65F",
"J. c #FCB35C",
"K. c #E7AA61",
"L. c #EAAC62",
"P. c #EDAE63",
"I. c #EEB064",
"U. c #F0B164",
"Y. c #F3B366",
"T. c #F2B265",
"R. c #F4B366",
"E. c #F1B162",
"W. c #FFB660",
"Q. c #FFB760",
"!. c #FDB762",
"~. c #F9B563",
"^. c #FFB863",
"/. c #FFB864",
"(. c #FEB865",
"). c #FFB966",
"_. c #FEB967",
"`. c #FFBA67",
"'. c #FFBB69",
"]. c #FDBA69",
"[. c #FFBC6A",
"{. c #FFBC6B",
"}. c #FFBD6B",
"|. c #FFBC69",
" X c #FBBA69",
/* pixels */
"                                                                                                                                ",
"            i i i i r I i i i i i i i i i i i i i i i i i i i I i i I i i i r i r i i r r r r r e e e w                         ",
"          1.U.R.R.R.R.R.R.R.R.R.R.R.R.R.R.R.R.R.R.R.R.R.R.R.R.R.U.R.U.R.R.U.U.Y.U.U.U.U.U.U.U.P.I.I.I.P.P.P.P.P.P.K.K.i.I       ",
"          q. X[.{.{.{.{.}.}.}.[.{.}.}.[.[.[.}.}.{.}.}.}.{.}.}.}.}.}.}.}.}.}.}.}.{.}.}.}.}.{.}.{.}.}.[.[.{.{.].}.{.{.{. X1.      ",
"          0.].[.[.[.[.[.{.}.}.{.[.[.[.[.}.[.[.[.{.{.[.}.}.}.[.}.}.[.[.[.}.}.}.{.[.[.}.}.}.}.[.[.{.{.[.}.}.}.[.[.{.}.}.[.0.      ",
"          0.].[.[.[.[.[.].[.[.].[.[.[.[.[.[.[.[.}.].[.[.[.].[.[.[.[.[.[.}.].].{.[.[.[.[.[.[.[.[.[.].[.[.[.[.[.[.].[.[.[.i.      ",
"          0.].].[.].[.[.].[.].[.].[.[.[.].].].[.].].[.[.].[.].[.].[.[.].[.[.].[.[.[.[.[.].].].].].[.].[.].].[.[.].].].[.K.w     ",
"          0.].).].).).].).).).].[.).).).).].).].].).).).].).).).).).].).).).).].).).).).].).).].].).).).).].).).).].].].I.U     ",
"          w.!.].).).).).).).).).).).).).).).).).).).).).).).).).).).).).).).).).).).).).).).).).).).).).).).).).).).).).~.1.    ",
"          0.!.!.^.).^.).^.).).W.).).!.).).!.W.).).^.^.).^.^.).^.).).^.^.).!.!.).!.).).!.!.).).!.).).W.).!.).!.).^.).^.).W.1.    ",
"          w.W.!.^.^.^.^.^.^.^.^.).W.!.W.W.).^.^.W.^.^.^.^.^.).^.^.^.^.^.!.).!.W.^.^.W.).).!.!.W.W.).).^.).W.!.!.^.^.^.^.^.2.    ",
"          w.W.W.H.W.W.W.W.W.W.W.W.W.W.W.W.W.W.W.W.W.W.W.W.W.W.W.W.W.W.W.W.W.W.W.W.W.W.W.W.W.W.W.W.H.W.W.W.W.W.W.W.W.W.W.H.1.    ",
"          7.W.H.W.W.A.W.H.A.H.A.H.H.H.H.H.H.H.W.H.H.W.H.W.W.W.W.H.H.J.W.~.A.W.W.H.W.A.W.A.W.W.W.H.A.H.A.H.A.W.A.H.W.H.H.H.6.    ",
"          6.A.H.A.A.H.A.H.H.A.H.N.H.H.A.H.H.n.n.x.x.x.x.l.l.k.k.k.k.k.k.k.J.A.A.H.A.H.A.H.A.A.A.H.H.A.H.A.H.A.H.H.N.H.H.H.e.    ",
"          6.A.A.A.A.A.A.A.A.A.A.H.B.N.B.B.M.<.U b v v p p y y         O b v.A.A.A.A.A.A.A.A.A.A.A.A.A.A.A.A.A.A.B.A.H.N.J.6.    ",
"          6.B.B.B.A.B.B.B.B.B.A.B.B.B.B.B.k.                          v e.B.A.B.B.B.B.B.A.B.B.B.B.B.B.A.B.B.B.B.B.B.N.J.8.p     ",
"          6.M.B.B.B.B.N.N.N.N.N.N.N.N.N.N.5.                        u 8.B.N.m.B.N.N.N.m.N.N.N.m.B.B.B.B.N.N.N.N.N.N.m.8.v       ",
"          4.b.m.m.m.m.m.m.N.m.m.N.m.m.m.m.q                       b p.m.m.N.m.m.N.N.m.m.m.B.m.B.m.m.m.m.m.m.N.m.m.m.7.u         ",
"          3.b.m.m.m.m.m.m.m.m.m.m.m.m.m.l.X                     v a.m.m.m.m.m.m.m.m.m.m.m.m.m.m.m.m.m.m.m.m.m.m.v.7.y           ",
"          Y v.b.m.b.m.m.m.m.m.m.m.m.m.m.9.                    u c.m.m.m.m.m.m.m.m.m.m.m.m.m.b.m.b.m.m.m.m.m.m.v.t.q             ",
"          x t.v.b.b.b.b.m.m.m.m.j.m.m.m.M                   y a.m.b.m.j.b.b.b.m.b.b.m.j.b.b.b.b.b.b.b.b.b.b.m.a.u               ",
"              8 u x M Y ] 4.9.t.a.g.h.g.8                 u a.b.m.b.b.m.b.b.m.j.b.b.b.m.b.b.b.b.b.b.b.m.j.m.g.8                 ",
"                                                        c a.j.j.b.j.j.j.j.b.j.b.b.j.j.j.b.j.j.j.j.b.j.b.b.t.7                   ",
"                                                      m a.j.j.j.j.b.j.j.b.j.j.j.j.b.j.j.j.j.b.j.j.j.j.j.r.o                     ",
"                                                    x y.j.j.j.j.j.j.j.j.j.j.j.j.j.j.j.j.j.j.j.j.j.j.j.r.8                       ",
"                                                  c r.j.f.j.j.j.j.j.j.j.j.f.j.j.j.j.j.f.j.j.j.j.j.j.r.x                         ",
"                                                g 9.f.j.j.j.j.j.j.j.f.j.j.j.f.j.j.j.j.j.f.j.j.j.f.r.c                           ",
"                                              N y.f.j.f.f.f.f.f.f.f.f.f.f.f.f.f.d.j.d.f.f.f.f.d.[ u                             ",
"                                            n s.f.f.f.f.f.f.f.f.f.f.f.f.f.f.f.f.f.f.f.f.f.d.d.&.d                               ",
"                                          g s.f.f.d.f.f.d.f.f.f.d.f.f.f.d.f.d.f.d.j.f.f.f.d.&.u                                 ",
"                                        c s.d.d.d.d.f.d.d.f.d.d.d.f.f.d.d.d.d.f.d.d.d.d.d.y.k                                   ",
"                                      k >.d.d.d.d.d.d.d.d.d.d.d.d.d.d.d.d.d.d.d.d.d.d.d.u.g                                     ",
"                                    Y >.,.d.d.d.d.d.,.d.d.d.d.d.,.d.d.,.d.d.,.d.d.,.d.;.9                                       ",
"                                  K :.d.,.d.,.,.,.d.,.d.,.,.,.,.d.,.d.,.,.d.d.,.,.,.*.9                                         ",
"                                k *.,.,.d.,.,.,.,.,.,.,.,.d.,.,.,.,.,.d.,.,.,.,.,.;.a                                           ",
"                              k $.,.,.,.,.,.,.,.,.,.,.,.,.,.,.,.,.,.,.,.,.,.,.,.;.k                                             ",
"                            k %.,.,.,.,.,.,.,.,.,.,.,.,.,.:.,.,.,.,.,.,.,.,.,.$.l                                               ",
"                          / =.,.:.,.:.:.:.,.:.:.,.,.:.:.,.:.:.,.:.:.:.,.,.,.$.f                                                 ",
"                        K =.:.:.:.:.:.:.:.:.:.:.:.:.:.:.:.:.:.:.:.:.:.:.:.$.f                   f ' ' ' _ _ _ / / / K K k       ",
"                      L @.:.:.:.:.:.:.:.:.:.:.:.:.:.:.:.:.:.:.:.:.:.:.:.$.h                     _ :.:.:.,.-.-.-.-.=.=.=.;.K     ",
"                    H =.:.-.:.:.:.-.:.-.:.-.:.-.:.:.#.#.:.:.:.:.:.-.:.=.K                     = ' :.:.:.:.:.:.:.:.-.-.-.:._     ",
"                  L =.:.:.#.-.-.-.-.-.:.-.-.-.-.-.:.:.:.#.:.#.:.-.-.@.H                       s  .:.#.-.#.:.#.:.-.-.-.-.:.`     ",
"              % _ #.-.-.#.#.:.:.-.-.-.-.-.-.#.-.:.#.#.-.#.#.:.:.-.@.j                         f @.#.#.:.-.#.-.#.-.-.#.-.:.`     ",
"              ( #.-.#.-.#.:.#.#.#.#.#.#.#.-.#.#.#.:.#.-.:.#.#.#.#.j                           J #.#.:.#.#.-.-.#.#.-.#.-.#.`     ",
"            H O.#.#.#.#.#.#.#.#.#.#.#.#.#.#.#.-.#.#.#.#.#.#.#.#.H                             ' #.:.#.#.#.#.#.#.#.#.#.#.#.`     ",
"          J O.#.#.#.#.#.#.#.#.#.#.#.#.#.#.#.#.o.#.#.#.#.#.#.@.J                               } #.#.#.#.#.#.#.#.#.#.#.#.#.`     ",
"        G O.o.#.#.#.#.#.#.#.#.#.#.#.#.#.#.#.#.#.#.o.#.o.#.O.( .                             * } o.#.#.#.#.#.#.#.#.#.#.#.#.(     ",
"    & ( +.#.o.o.o.#.o.o.o.o.#.o.o.o.#.o.o.o.o.o.#.o.o.o.@.A .                         , < 5 G ..o.#.o.o.o.#.o.o.o.o.o.#.o.P     ",
"    6 +.o.o.o.o.o.o.o.o.o.o.o.o.o.o.o.o.o.o.o.o.o.o.o.o...S 4 Z Z A S S S ( ( ) ) { } } | | ..o.o.o.o.o.o.o.o.o.o.o.o.o.o.(     ",
"    S o.X.o.o.o.o.X.X.o.o.X.o.o.o.X.o.X.o.X.o.X.X.o.X.o.+.X.X...X.X.X.o.X.o.^ o.X.o.X.X.o.X.o.X.o.o.o.X.o.X.o.X.X.o.X.o.o.S     ",
"    4 X.X.X.X.X.X.X.X.X.X.X.X.X.X.X.X.X.X.X.o.X.X.X.X.X.X.X.X.X.X.X.o.o.o.X.o.X.X.o.X.X.X.X.X.o.X.X.X.X.X.X.X.X.X.X.o.X.X.Z     ",
"    , X.X.X.X.X.X.X.X.X.X.X.X.X.X.X.X.X.X.X.X.X.X.X.X.X.X.X.X.X.X.X.^ o.o.^ X.X.o.^ X.X.X.X.X.X.X.X.X.X.X.X.X.X.X.X.X.X.X.Z     ",
"    3 ^ X.X.X.X.X.X.^ X.^ X.X.^ X.^ X.X.^ X.X.X.X.^ X.^ X.X.X.X.X.X.X.X.o.X.^ X.^ X.X.^ X.X.X.X.^ X.X.^ X.X.X.X.X.X.X.X.^ 4     ",
"    , ! X.^ ^ X.^ ^ X.X.^ X.^ X.X.^ ^ X.X.X.^ ^ ^ X.X.X.^ ^ ^ X.^ ^ ^ ^ ^ X.X.^ X.^ ^ X.^ X.^ ^ X.^ X.X.^ ^ ^ X.^ ^ ^ X.X.2     ",
"    @ T ^ ^ ^ ^ ^ ^ X.^ ^ ^ ^ ^ ^ X.^ ^ ^ ^ ^ ^ ^ ^ ^ ^ ^ X.^ ^ ^ X.^ ^ ^ ^ ^ ^ X.^ ^ ^ ^ ^ ^ ^ ^ ^ ^ ^ ^ ^ X.^ ^ ^ ^ ^ ^ 1     ",
"      F ^ ^ ^ ^ ^ ^ ^ ^ ^ ^ ^ ^ ^ ^ ^ ^ ^ ^ ^ ^ ^ ^ ^ ^ ^ ^ ^ ^ ^ ^ ^ ^ ^ ^ ^ ^ ^ ^ ^ ^ ^ ^ ^ ^ ^ ^ ^ ^ ^ ^ ^ ^ ^ ^ ^ ^ ^ 1     ",
"      V ~ ^ W ^ ^ ^ ~ ^ ^ ^ ^ ~ ^ ^ ^ ^ ~ ^ ^ ~ ^ ~ ^ ~ ^ ^ Q ^ ^ ^ ^ ^ ~ ^ ~ ^ ^ ^ ^ ^ ~ ^ ^ ~ ^ ~ ^ ~ ^ ^ Q ^ ^ ^ ^ ^ ^ 2     ",
"      > W ^ ^ ^ ~ ^ ~ ~ ~ ~ ^ ~ ~ ^ W ^ ^ ~ ^ ~ ~ ^ ~ ^ ~ ~ ^ ^ ^ ^ ~ ^ ~ ^ ~ ~ ~ ^ W ^ ^ ~ ^ ~ ~ ^ ~ ^ ~ ~ ^ ^ ^ ^ ~ ~ ~ 3     ",
"      $ E ~ ~ ~ ~ ~ ~ ~ ~ ~ ~ ~ ~ ~ W W W ~ ~ ~ ~ ~ ~ ~ W ~ W ~ ~ ~ ~ ~ ~ ~ ~ ~ ~ ~ W W W ~ ~ ~ ~ ~ ~ ~ W ~ W ~ ~ ~ ~ ~ Q C     ",
"      # R ~ W W ~ ~ ~ ~ ~ W ~ ~ ~ ~ W W W ~ W ~ W ~ W ~ W ~ W W ~ W ~ W W W ~ ~ ~ ~ W W W ~ W ~ W ~ W ~ ~ W W W W ~ W ~ W C     ",
"        D W W W W W W W W W W W W W W W W W W W W W W W W W W W W W W W W W W W W W W W W W W W W W W W W W W W W W W W W C     ",
"        : W W W W W W W W W W W W W W W W W W W W W W W W W W W W W W W W W W W W W W W W W W W W W W W W W W W W W W W E B     ",
"        + - ; ; - ; ; ; ; ; - ; ; ; ; ; - ; ; ; ; ; - ; ; ; ; ; - ; ; ; ; ; - ; ; ; ; ; - ; ; ; ; ; - ; ; ; ; ; - ; ; ; -       ",
"                                                                                                                                "
};
