/* XPM */
static char *c38d91dc59bd48a0829d0b22e2575d9cUKCaNXCHmbus8CQM[] = {
/* columns rows colors chars-per-pixel */
"32 32 216 2 ",
"   c None",
".  c #A1611B",
"X  c #AA681F",
"o  c #AD691E",
"O  c #BA6A14",
"+  c #9A6C36",
"@  c #A46722",
"#  c #A0692B",
"$  c #AB6D28",
"%  c #B67021",
"&  c #B57125",
"*  c #BD7421",
"=  c #B1722B",
"-  c #A77236",
";  c #AA7436",
":  c #AF7635",
">  c #AE793B",
",  c #BB7A30",
"<  c #B27A39",
"1  c #B67B38",
"2  c #B27D3E",
"3  c #C7771E",
"4  c #CB7619",
"5  c #C9781E",
"6  c #CC7A1F",
"7  c #DA7D17",
"8  c #D77C19",
"9  c #DB7F19",
"0  c #C77B27",
"q  c #C97C27",
"w  c #C57C2A",
"e  c #D37E20",
"r  c #D17F22",
"t  c #D57F20",
"y  c #B37E40",
"u  c #B9813E",
"i  c #BE823D",
"p  c #D9801D",
"a  c #E1831C",
"s  c #E6871F",
"d  c #FC901A",
"f  c #FF921B",
"g  c #FF931B",
"h  c #FF931D",
"j  c #FF941D",
"k  c #CF822C",
"l  c #D98221",
"z  c #DB8321",
"x  c #DC8422",
"c  c #D6862C",
"v  c #D88528",
"b  c #D9892E",
"n  c #DB8A2F",
"m  c #C58032",
"M  c #C98232",
"N  c #C7863B",
"B  c #C2843D",
"V  c #D28937",
"C  c #DF8C30",
"Z  c #DB8D34",
"A  c #DB913C",
"S  c #D8903E",
"D  c #E68921",
"F  c #E48923",
"G  c #E98A22",
"H  c #E98B24",
"J  c #E98C26",
"K  c #ED8F27",
"L  c #E68D28",
"P  c #EA8F29",
"I  c #E7902F",
"U  c #EE922C",
"Y  c #EE932E",
"T  c #F09025",
"R  c #FF9520",
"E  c #FF9620",
"W  c #FF9622",
"Q  c #FF9722",
"!  c #F89526",
"~  c #FF9725",
"^  c #FF9825",
"/  c #FF9927",
"(  c #F29228",
")  c #F3942A",
"_  c #FF9A28",
"`  c #FF9A2A",
"'  c #FF9B2A",
"]  c #F9992E",
"[  c #FA9A2E",
"{  c #FF9B2C",
"}  c #FF9B2D",
"|  c #FF9C2D",
" . c #FF9D2F",
".. c #E79334",
"X. c #EB9432",
"o. c #EC9635",
"O. c #EF9734",
"+. c #E4983F",
"@. c #F29832",
"#. c #F69830",
"$. c #F79B33",
"%. c #FD9D31",
"&. c #FD9D32",
"*. c #FF9E32",
"=. c #FF9F32",
"-. c #FE9F34",
";. c #FF9F34",
":. c #F09A39",
">. c #F69F3D",
",. c #FFA034",
"<. c #FFA035",
"1. c #FFA135",
"2. c #FFA137",
"3. c #FFA237",
"4. c #FFA239",
"5. c #FFA33A",
"6. c #FFA33C",
"7. c #FFA43C",
"8. c #FDA43E",
"9. c #FFA53F",
"0. c #B78143",
"q. c #BD8543",
"w. c #B98445",
"e. c #B88447",
"r. c #BF8847",
"t. c #B38349",
"y. c #B2834A",
"u. c #B68448",
"i. c #C88E4A",
"p. c #D08F44",
"a. c #CF9047",
"s. c #CE9048",
"d. c #D99647",
"f. c #D0944D",
"g. c #DC994A",
"h. c #DF9B4B",
"j. c #C99452",
"k. c #D39953",
"l. c #E89B42",
"z. c #F09E40",
"x. c #DEA056",
"c. c #DBA15B",
"v. c #EDA046",
"b. c #E5A14F",
"n. c #E9A14C",
"m. c #EAA24D",
"M. c #F8A240",
"N. c #FBA440",
"B. c #FFA641",
"V. c #FDA744",
"C. c #FFA744",
"Z. c #FFA844",
"A. c #FFA946",
"S. c #FFA947",
"D. c #FFAA47",
"F. c #F4A64B",
"G. c #F1A54D",
"H. c #F1A64F",
"J. c #FFAA49",
"K. c #FFAB49",
"L. c #FDAB4B",
"P. c #F8A94C",
"I. c #FFAB4C",
"U. c #FFAC4C",
"Y. c #FFAD4E",
"T. c #FFAD4F",
"R. c #E6A252",
"E. c #E5A354",
"W. c #E9A656",
"Q. c #ECA857",
"!. c #E8A658",
"~. c #F5A950",
"^. c #F0A955",
"/. c #F8AB51",
"(. c #F9AC51",
"). c #FBAC50",
"_. c #FFAE51",
"`. c #FFAF51",
"'. c #FCAE52",
"]. c #FDAF53",
"[. c #F6AF5B",
"{. c #FFB053",
"}. c #FBB055",
"|. c #FFB054",
" X c #FEB055",
".X c #FCB057",
"XX c #FFB156",
"oX c #FFB256",
"OX c #FAB059",
"+X c #FEB258",
"@X c #FFB258",
"#X c #FFB359",
"$X c #FCB25A",
"%X c #FFB45B",
"&X c #FFB55B",
"*X c #FBB35C",
"=X c #FDB35D",
"-X c #FFB55D",
";X c #FDB55F",
":X c #FFB55E",
">X c #FFB65E",
",X c #FFB660",
"<X c #FFB760",
"1X c #FFB761",
"2X c #FDB662",
"3X c #FDB764",
"4X c #FFB863",
"5X c #FFB963",
"6X c #FFB965",
"7X c #FCB867",
"8X c #FFBA66",
"9X c #FCBA69",
"0X c #FFBA68",
"qX c #FFBB68",
"wX c #FFBB6A",
"eX c #FFBC6A",
/* pixels */
"    t.9XeXeXeXeXeXeXeXeXeXeXeXeXeXeXeXeXeXeXeXeXeXeXeXeXeXeXc.  ",
"    t.7X0X0X0X0XqX7XqX7XqXqX7X7XeX7XqXqXeX7X7XqX7XqX7XqXqXqXj.  ",
"    u.3X7X5X7X7X5X7X7X7X7X5X7X5X5X7X7X5X7X5X5X7X7X7X5X7X7X7Xk.  ",
"    e.2X5X5X5X5X5X5X5X5X5X5X5X5X5X5X5X5X2X5X5X5X5X5X5X5X5X5Xx.  ",
"    w.2X:X:X:X2X:X2X:X;X2X:X5X2X:X5X5X:X2X:X:X2X2X:X:X2X;X;XQ.  ",
"    0.*X:X:X:X:X:X:X:XQ.[.R.f.i.i.r.E.:X:X:X:X:X:X:X:X:X;X;XQ.  ",
"    y $X@X:X&X&X@X:XR.            + ^.&X&X&X@X:X&X&X&X&X&X$Xq.  ",
"    2 @X@X@XoXoXoX&Xa.            b.@X@XoX@X@X@XoXoX@X@XoXs.    ",
"    > }.oXoXoXoXoX].u           h.oXoXoX].oXoXoXoXoXoXoXh.      ",
"      d.n.H.~./.'./.          p.'.{.'.{.].oX'.'.].'.{.m.        ",
"              - < i         B /.'.Y.'.'.'.'.'.'.'.'.H.;         ",
"                          : F.I.Y.Y.Y.Y.Y.Y.Y.Y.Y.P.1           ",
"                          v.I.I.I.I.I.I.K.I.I.I.K.N             ",
"                        l.K.K.K.K.K.K.K.K.K.K.K.S               ",
"                      A K.A.A.A.A.A.V.A.A.A.A.l.                ",
"                    V V.V.V.V.V.V.V.V.V.Z.Z.l.#                 ",
"                  w 8.B.B.B.B.B.B.B.B.B.B.8.,                   ",
"                = >.N.9.9.9.9.B.B.9.9.9.9.M                     ",
"              $ :.B.4.9.4.9.9.4.4.9.9.4.Z                       ",
"              o.9.4.4.4.4.4.4.4.4.4.4...                        ",
"            C <.<.<.4.<.<.4.<.<.;.4.O.          b X.b b k w @   ",
"          c <.,.;.;.;.;.,.,.<.<.;.$.&           @.<.<.<.<.<...  ",
"        q &.&.&.,.&.&.&.&.&.&.&.&.0             #.,.&.,.&.&.U   ",
"      % [  . . . . . .&. . . . .v             @ [  . . . . .U   ",
"    o )  .} } } } } } } } }  .L               * '  .} } }  .P   ",
"    K _ _ _ _ _ } _ _ } _ _ ( .               r _ _ _ _ _ } J   ",
"  x _ / / / _ _ _ ~ _ ~ / / K t q 4 5 8 l l D ! / / / / / / H   ",
"  D / / ~ ~ ~ ~ ~ ~ ~ ~ ~ ~ ~ ~ ~ / / ~ / / ~ ~ / ~ ~ ~ ~ / G   ",
"  9 ~ R R ~ R R R ~ R ~ R ~ R R R R R / R ~ R ~ R ~ R R R R D   ",
"  4 R R R R R R R h R R R R R R R R R j R h R R R R R R R R a   ",
"  8 d h h h h h h h h h h h h h h h j h h h h h h h h h h j 9   ",
"  O f f g g h h f f f f h h f g g g g h f g g g h h g g g g 7   "
};
